<svg xmlns="http://www.w3.org/2000/svg" xmlns:xlink="http://www.w3.org/1999/xlink" fill="none" version="1.1" width="32" height="16" viewBox="0 0 32 16"><defs><mask id="master_svg0_273_024843"><g><path d="M10,0L14.71429,8.05229L26.5,12.4444L32,1.46405L10,0Z" fill="#FFFFFF" fill-opacity="1"/></g></mask></defs><g><g mask="url(#master_svg0_273_024843)"><g transform="matrix(-0.7316622138023376,0.6816674470901489,-0.7316622138023376,-0.6816674470901489,48.18565158684166,-4.098546325903669)"><g><ellipse cx="30.71022891998291" cy="13.625227451324463" rx="3.037379264831543" ry="3.037379264831543" fill="#DEA653" fill-opacity="1"/></g><g><path d="M26.546844776916505,9.20042396774292Q26.912344776916505,8.85641396774292,27.329354776916503,8.57706396774292L28.164184776916503,9.82328396774292Q27.850154776916504,10.03365396774292,27.574894776916505,10.29271396774292L26.546844776916505,9.20042396774292ZM24.943740776916503,11.71367396774292Q25.101785776916504,11.23660396774292,25.336082776916506,10.79199396774292L26.663104776916505,11.49129396774292Q26.486664776916506,11.82611396774292,26.367644776916503,12.18539396774292L24.943740776916503,11.71367396774292ZM24.726636576916505,14.67209396774292Q24.640057086916503,14.17778396774292,24.635766782916505,13.67596396774292L26.135714776916505,13.66314396774292Q26.138944776916503,14.041043967742919,26.204144776916504,14.41329396774292L24.726636576916505,14.67209396774292ZM25.941474776916504,17.387143967742922Q25.629663776916505,16.99199396774292,25.387141776916504,16.550913967742922L26.701554776916502,15.82820396774292Q26.884194776916505,16.16036396774292,27.119004776916505,16.457933967742918L25.941474776916504,17.387143967742922ZM28.303884776916505,19.20187396774292Q27.841984776916505,19.00257396774292,27.419144776916504,18.72997396774292L28.231804776916505,17.46922396774292Q28.550244776916504,17.67447396774292,28.898094776916505,17.82457396774292L28.303884776916505,19.20187396774292ZM31.228014776916503,19.67667396774292Q30.969624776916504,19.69877396774292,30.710304776916505,19.69877396774292Q30.477774776916505,19.69877396774292,30.245924776916503,19.680973967742922L30.360594776916503,18.18537396774292Q30.535194776916505,18.19877396774292,30.710304776916505,18.19877396774292Q30.905594776916505,18.19877396774292,31.100174776916504,18.18217396774292L31.228014776916503,19.67667396774292ZM34.0468047769165,18.70047396774292Q33.6260047769165,18.977073967742918,33.1654047769165,19.18057396774292L32.5591847769165,17.80857396774292Q32.906054776916505,17.65527396774292,33.222944776916506,17.44699396774292L34.0468047769165,18.70047396774292ZM36.0592447769165,16.50357396774292Q35.820544776916506,16.94688396774292,35.5121447769165,17.34485396774292L34.326494776916505,16.426093967742922Q34.558724776916506,16.12639396774292,34.7384447769165,15.79254396774292L36.0592447769165,16.50357396774292ZM36.78504477691651,13.624033967742921Q36.78504477691651,14.12424396774292,36.703244776916506,14.61772396774292L35.2234447769165,14.37236396774292Q35.28504477691651,14.00073396774292,35.28504477691651,13.624033967742921L36.78504477691651,13.624033967742921ZM36.423444776916504,11.55939396774292Q36.593444776916506,12.02974396774292,36.684144776916504,12.52155396774292L35.2090447769165,12.79377396774292Q35.140744776916506,12.42340396774292,35.012744776916506,12.069203967742919L36.423444776916504,11.55939396774292ZM34.75464477691651,9.09128396774292Q35.1303447769165,9.42646396774292,35.4456447769165,9.818913967742919L34.27640477691651,10.75849396774292Q34.038914776916506,10.46294396774292,33.756024776916504,10.210523967742919L34.75464477691651,9.09128396774292ZM32.1133147769165,7.71351096774292Q32.60356477691651,7.82988396774292,33.0679347769165,8.02543896774292L32.4857847769165,9.40786396774292Q32.1360747769165,9.26059396774292,31.766874776916502,9.17295396774292L32.1133147769165,7.71351096774292ZM30.139134776916503,7.57618546774292L30.280164776916504,9.06954396774292Q29.903124776916503,9.10514396774292,29.537084776916505,9.20227396774292L29.152394776916502,7.75243796774292Q29.638464776916503,7.62346906774292,30.139134776916503,7.57618546774292Z" fill-rule="evenodd" fill="#CB9A44" fill-opacity="1"/></g></g></g><g><path d="M14,9.777773969116211Q14,10.33343396911621,13.8461,10.871983969116211Q14.4,10.666833969116212,15,10.666833969116212Q15.1474,10.666833969116212,15.2941,10.67967396911621Q15.4407,10.692513969116211,15.5853,10.718073969116212Q15.7298,10.74362396911621,15.8709,10.78165396911621Q16.0119,10.81968396911621,16.148,10.869813969116212Q16.2842,10.91995396911621,16.4142,10.98170396911621Q16.5442,11.04346396911621,16.6667,11.116243969116212Q16.7893,11.18902396911621,16.9032,11.272133969116211Q17.0171,11.355243969116211,17.1213,11.44787396911621Q17.2255,11.540513969116212,17.319,11.641783969116211Q17.4125,11.743053969116211,17.4944,11.851973969116212Q17.5763,11.960903969116211,17.6458,12.076433969116211Q17.7152,12.191973969116212,17.7716,12.31300396911621Q17.828,12.43404396911621,17.8708,12.559403969116211Q17.9136,12.684763969116212,17.9424,12.81325396911621Q17.9711,12.94174396911621,17.9856,13.072113969116211Q18,13.202493969116212,18,13.33349396911621Q18,13.46450396911621,17.9856,13.594873969116211Q17.9711,13.725253969116212,17.9424,13.853733969116211Q17.9136,13.98222396911621,17.8708,14.10759396911621Q17.828,14.232953969116211,17.7716,14.35398396911621Q17.7152,14.475023969116211,17.6458,14.590553969116211Q17.5763,14.70609396911621,17.4944,14.815013969116212Q17.4125,14.92394396911621,17.319,15.02521396911621Q17.2255,15.126483969116212,17.1213,15.219113969116211Q17.0171,15.31175396911621,16.9032,15.394833969116211Q16.7893,15.477933969116211,16.6667,15.55073396911621Q16.5442,15.623533969116211,16.4142,15.685333969116211Q16.2842,15.747033969116211,16.148,15.797133969116212Q16.0119,15.84733396911621,15.8709,15.88533396911621Q15.7298,15.92333396911621,15.5853,15.948933969116212Q15.4407,15.97443396911621,15.2941,15.98733396911621Q15.1474,16.000133969116213,15,16.000133969116213Q14.9808,16.000133969116213,14.9617,15.999933969116212L4.0382,15.999933969116212Q4.0191,16.000133969116213,4,16.000133969116213Q3.80349,16.000133969116213,3.60793,15.98303396911621Q3.41237,15.965833969116211,3.21964,15.93183396911621Q3.02691,15.89773396911621,2.83886,15.847033969116211Q2.65082,15.79633396911621,2.46927,15.729433969116212Q2.28772,15.66263396911621,2.11441,15.580233969116211Q1.94111,15.497933969116211,1.77772,15.400933969116211Q1.61433,15.303843969116212,1.46243,15.193033969116211Q1.31052,15.08222396911621,1.17157,14.95871396911621Q1.03262,14.835193969116212,0.907958,14.70017396911621Q0.783295,14.56514396911621,0.674121,14.41991396911621Q0.564948,14.274673969116211,0.472315,14.120633969116211Q0.379682,13.966583969116211,0.304482,13.80520396911621Q0.229282,13.64382396911621,0.172239,13.476673969116211Q0.115196,13.30952396911621,0.0768589,13.138203969116212Q0.0385222,12.96689396911621,0.0192611,12.793053969116212Q0,12.619223969116211,0,12.44455396911621Q0,12.269883969116211,0.0192611,12.096043969116211Q0.0385222,11.92221396911621,0.0768589,11.75089396911621Q0.115196,11.57958396911621,0.172239,11.412433969116211Q0.229282,11.245273969116212,0.304482,11.08390396911621Q0.379682,10.922523969116211,0.472315,10.768473969116211Q0.564948,10.61442396911621,0.674121,10.469193969116212Q0.783295,10.32395396911621,0.907958,10.18893396911621Q1.03262,10.053903969116211,1.17157,9.93039396911621Q1.31052,9.80688396911621,1.46243,9.69607396911621Q1.61433,9.58526396911621,1.77772,9.488213969116211Q1.94111,9.39117396911621,2.11441,9.308833969116211Q2.28772,9.226493969116211,2.46927,9.15964396911621Q2.65082,9.092803969116211,2.83886,9.04209396911621Q3.02691,8.99139396911621,3.21964,8.95731396911621Q3.41237,8.92324396911621,3.60793,8.90612396911621Q3.80349,8.88899396911621,4,8.88899396911621Q4.05038,8.88899396911621,4.10074,8.89012396911621Q4.14351,8.70360396911621,4.20406,8.521013969116211Q4.26462,8.338433969116211,4.34251,8.161113969116212Q4.42041,7.983803969116211,4.51508,7.813053969116211Q4.60975,7.642313969116211,4.72049,7.479383969116211Q4.83124,7.3164539691162105,4.95725,7.162543969116211Q5.08326,7.008633969116211,5.22362,6.864863969116211Q5.36397,6.721093969116211,5.51764,6.588513969116211Q5.67131,6.455933969116211,5.83717,6.335523969116211Q6.00303,6.215112969116211,6.17987,6.107747969116211Q6.3567,6.000381969116211,6.54322,5.906849969116211Q6.72974,5.813317969116211,6.92457,5.734303969116211Q7.11939,5.655289969116211,7.32111,5.591372969116211Q7.52283,5.527454969116211,7.72995,5.479103969116211Q7.93708,5.430751469116211,8.1481,5.398318669116211Q8.35912,5.365885969116211,8.57248,5.349609969116211Q8.78585,5.333333969116211,9,5.333333969116211Q9.12274,5.333333969116211,9.24534,5.338687499116211Q9.36793,5.344041069116211,9.49009,5.354735169116211Q9.61224,5.365429369116211,9.73365,5.381438369116211Q9.85507,5.397447369116211,9.97545,5.418732669116211Q10.0958,5.4400179691162105,10.2149,5.4665279691162105Q10.334,5.493038969116211,10.4514,5.524709969116211Q10.5689,5.556381969116211,10.6844,5.593137969116211Q10.8,5.629893969116211,10.9134,5.671646969116211Q11.0268,5.713399969116211,11.1378,5.7600479691162105Q11.2487,5.806696969116211,11.357,5.858127969116211Q11.4652,5.909559969116211,11.5705,5.965650969116211Q11.6758,6.021741969116211,11.7779,6.082357969116211Q11.8799,6.142973969116211,11.9785,6.207966969116211Q12.0771,6.272960969116211,12.172,6.342173969116211Q12.2668,6.411393969116211,12.3578,6.484663969116211Q12.4487,6.557933969116211,12.5355,6.635083969116211Q12.6223,6.712233969116211,12.7048,6.793073969116211Q12.7872,6.873913969116211,12.8651,6.95825396911621Q12.9429,7.042593969116211,13.016,7.130223969116211Q13.0892,7.217863969116211,13.1573,7.308573969116211Q13.2255,7.399293969116211,13.2886,7.492873969116211Q13.3517,7.5864639691162115,13.4096,7.68268396911621Q13.4675,7.778903969116211,13.5199,7.877533969116211Q13.5724,7.976163969116211,13.6194,8.07696396911621Q13.6664,8.17776396911621,13.7077,8.280493969116211Q13.7491,8.38321396911621,13.7847,8.48762396911621Q13.8203,8.592033969116212,13.8502,8.697863969116211Q13.88,8.80370396911621,13.9039,8.91071396911621Q13.9279,9.017723969116211,13.9459,9.125643969116211Q13.9639,9.233563969116211,13.9759,9.342143969116211Q13.988,9.450723969116211,13.994,9.55970396911621Q14,9.668673969116211,14,9.777773969116211Z" fill-rule="evenodd" fill="#FFFFFF" fill-opacity="1"/></g></g></svg>